<svg xmlns="http://www.w3.org/2000/svg">
  <symbol id="icon-home" viewBox="0 0 24 24">
    <path d="m3 11 9-8 9 8v9a1 1 0 0 1-1 1h-5v-7H9v7H4a1 1 0 0 1-1-1z"/>
  </symbol>
  <symbol id="icon-plus" viewBox="0 0 24 24">
    <path d="M12 5v14M5 12h14"/>
  </symbol>
  <symbol id="icon-list-checks" viewBox="0 0 24 24">
    <path d="m3 7 2 2 4-4M3 17l2 2 4-4M13 6h8M13 12h8M13 18h8"/>
  </symbol>
  <symbol id="icon-arrow-right" viewBox="0 0 24 24">
    <path d="M5 12h14M13 6l6 6-6 6"/>
  </symbol>
  <symbol id="icon-arrow-left" viewBox="0 0 24 24">
    <path d="M19 12H5M11 18l-6-6 6-6"/>
  </symbol>
  <symbol id="icon-rotate" viewBox="0 0 24 24">
    <path d="M3 12a9 9 0 1 0 3-6.7L3 8M3 3v5h5"/>
  </symbol>
  <symbol id="icon-save" viewBox="0 0 24 24">
    <path d="M5 3h12l4 4v14H3V3zM7 3v6h10V3M7 21v-7h10v7"/>
  </symbol>
  <symbol id="icon-check" viewBox="0 0 24 24">
    <path d="m5 12 4 4L19 6"/>
  </symbol>
  <symbol id="icon-clock" viewBox="0 0 24 24">
    <circle cx="12" cy="12" r="9"/>
    <path d="M12 7v5l3 2"/>
  </symbol>
  <symbol id="icon-shield" viewBox="0 0 24 24">
    <path d="M12 3 4 6v6c0 5 3.5 8 8 9 4.5-1 8-4 8-9V6zM8 12l3 3 5-6"/>
  </symbol>
  <symbol id="icon-x" viewBox="0 0 24 24">
    <path d="m6 6 12 12M18 6 6 18"/>
  </symbol>
  <symbol id="icon-target" viewBox="0 0 24 24">
    <circle cx="12" cy="12" r="8"/>
    <circle cx="12" cy="12" r="3"/>
    <path d="M12 2v2M22 12h-2M12 22v-2M2 12h2"/>
  </symbol>
  <symbol id="icon-book-open" viewBox="0 0 24 24">
    <path d="M3 5.5A3.5 3.5 0 0 1 6.5 2H11a1 1 0 0 1 1 1v18a2.5 2.5 0 0 0-2.5-2.5H3z"/>
    <path d="M21 5.5A3.5 3.5 0 0 0 17.5 2H13a1 1 0 0 0-1 1v18a2.5 2.5 0 0 1 2.5-2.5H21z"/>
  </symbol>
  <symbol id="icon-chart" viewBox="0 0 24 24">
    <path d="M3 3v18h18M8 17v-3M13 17V9M18 17V5"/>
  </symbol>
  <symbol id="icon-database" viewBox="0 0 24 24">
    <ellipse cx="12" cy="5" rx="9" ry="3"/>
    <path d="M3 5v6c0 1.7 4 3 9 3s9-1.3 9-3V5M3 11v6c0 1.7 4 3 9 3s9-1.3 9-3v-6"/>
  </symbol>
  <symbol id="icon-calendar-check" viewBox="0 0 24 24">
    <rect x="3" y="5" width="18" height="16" rx="2"/>
    <path d="M16 3v4M8 3v4M3 10h18m-13 5 2 2 5-5"/>
  </symbol>
  <symbol id="icon-more" viewBox="0 0 24 24">
    <circle cx="5" cy="12" r="1"/>
    <circle cx="12" cy="12" r="1"/>
    <circle cx="19" cy="12" r="1"/>
  </symbol>
  <symbol id="icon-eye" viewBox="0 0 24 24">
    <path d="M2 12s3.5-6 10-6 10 6 10 6-3.5 6-10 6S2 12 2 12z"/>
    <circle cx="12" cy="12" r="2.5"/>
  </symbol>
  <symbol id="icon-trash" viewBox="0 0 24 24">
    <path d="M4 7h16M9 7V4h6v3M7 7l1 14h8l1-14M10 11v6M14 11v6"/>
  </symbol>
  <symbol id="icon-search" viewBox="0 0 24 24">
    <circle cx="11" cy="11" r="7"/>
    <path d="m20 20-4-4"/>
  </symbol>
  <symbol id="icon-image" viewBox="0 0 24 24">
    <rect x="3" y="3" width="18" height="18" rx="2"/>
    <circle cx="8.5" cy="8.5" r="1.5"/>
    <path d="m21 15-5-5L5 21"/>
  </symbol>
</svg>
