<svg xmlns="http://www.w3.org/2000/svg">
  <symbol id="icon-home" viewBox="0 0 24 24">
    <path d="m3 11 9-8 9 8v9a1 1 0 0 1-1 1h-5v-7H9v7H4a1 1 0 0 1-1-1z"/>
  </symbol>
  <symbol id="icon-plus" viewBox="0 0 24 24">
    <path d="M12 5v14M5 12h14"/>
  </symbol>
  <symbol id="icon-list-checks" viewBox="0 0 24 24">
    <path d="m3 7 2 2 4-4M3 17l2 2 4-4M13 6h8M13 12h8M13 18h8"/>
  </symbol>
  <symbol id="icon-arrow-right" viewBox="0 0 24 24">
    <path d="M5 12h14M13 6l6 6-6 6"/>
  </symbol>
  <symbol id="icon-arrow-left" viewBox="0 0 24 24">
    <path d="M19 12H5M11 18l-6-6 6-6"/>
  </symbol>
  <symbol id="icon-rotate" viewBox="0 0 24 24">
    <path d="M3 12a9 9 0 1 0 3-6.7L3 8M3 3v5h5"/>
  </symbol>
  <symbol id="icon-save" viewBox="0 0 24 24">
    <path d="M5 3h12l4 4v14H3V3zM7 3v6h10V3M7 21v-7h10v7"/>
  </symbol>
  <symbol id="icon-check" viewBox="0 0 24 24">
    <path d="m5 12 4 4L19 6"/>
  </symbol>
  <symbol id="icon-clock" viewBox="0 0 24 24">
    <circle cx="12" cy="12" r="9"/>
    <path d="M12 7v5l3 2"/>
  </symbol>
  <symbol id="icon-shield" viewBox="0 0 24 24">
    <path d="M12 3 4 6v6c0 5 3.5 8 8 9 4.5-1 8-4 8-9V6zM8 12l3 3 5-6"/>
  </symbol>
  <symbol id="icon-x" viewBox="0 0 24 24">
    <path d="m6 6 12 12M18 6 6 18"/>
  </symbol>
</svg>
